<svg width="40" height="40" viewBox="0 0 40 40" fill="none" xmlns="http://www.w3.org/2000/svg">
<g id="&#240;&#159;&#166;&#134; icon &#34;smart home&#34;">
<g id="Group">
<path id="Vector" d="M30.5309 38.8827H19.1277C18.3736 38.8827 17.7483 38.2573 17.7483 37.5032C17.7483 36.7491 18.3736 36.1238 19.1277 36.1238H30.5309C32.4989 36.1238 34.4301 34.4867 34.7612 32.5371L37.2074 17.897C37.4281 16.5727 36.6926 14.6781 35.6626 13.8505L22.9165 3.66125C21.4451 2.48414 18.9989 2.48412 17.5459 3.64284L4.80007 13.8505C3.75171 14.6965 3.03441 16.5727 3.25511 17.897L3.7701 21.0051C3.89885 21.7592 3.38388 22.4765 2.62979 22.5869C1.87571 22.734 1.17681 22.2006 1.04807 21.4465L0.533082 18.3568C0.146843 16.0761 1.2504 13.1517 3.07125 11.6987L15.8171 1.49086C18.2816 -0.495513 22.1624 -0.477102 24.6454 1.50927L37.3913 11.6987C39.1937 13.1517 40.2973 16.0761 39.9294 18.3568L37.4833 32.9969C36.9315 36.2524 33.8232 38.8827 30.5309 38.8827Z" fill="#4361EE"/>
<path id="Vector_2" d="M7.35735 39.2324C6.60326 39.2324 5.99631 38.6254 5.97792 37.8897C5.92274 35.4068 4.28584 33.7698 1.80288 33.7147C1.04879 33.6963 0.441823 33.0709 0.460216 32.2985C0.478608 31.5444 1.08556 30.9558 1.83964 30.9558H1.87641C5.83076 31.0478 8.66321 33.8618 8.73677 37.8162C8.75517 38.5702 8.1482 39.214 7.39411 39.2324C7.37572 39.2324 7.37574 39.2324 7.35735 39.2324Z" fill="#4361EE"/>
<path id="Vector_3" d="M12.875 39.2323C12.121 39.2323 11.4956 38.6253 11.4956 37.8712C11.4772 36.6573 11.2749 35.4986 10.907 34.4135C9.96903 31.7282 7.96427 29.7416 5.27898 28.7852C4.19383 28.399 3.03512 28.1968 1.82122 28.1968C1.06713 28.1968 0.441812 27.5715 0.460204 26.799C0.460204 26.0449 1.08554 25.438 1.83963 25.438H1.85802C3.38459 25.4564 4.83757 25.7139 6.1986 26.1921C9.67476 27.4244 12.2681 30.0177 13.5004 33.4938C13.9786 34.8549 14.2361 36.3263 14.2545 37.8344C14.2545 38.6069 13.6475 39.2323 12.875 39.2323Z" fill="#4361EE"/>
<path id="Vector_4" d="M1.83924 39.6921C0.809264 39.6921 0 38.8645 0 37.8529C0 36.8413 0.827656 36.0137 1.83924 36.0137C2.85082 36.0137 3.67847 36.8413 3.67847 37.8529C3.67847 38.8645 2.86921 39.6921 1.83924 39.6921Z" fill="#4361EE"/>
</g>
</g>
</svg>
